<?xml version="1.0" encoding="utf-8"?>
<!-- Generator: Adobe Illustrator 16.0.0, SVG Export Plug-In . SVG Version: 6.00 Build 0)  -->
<!DOCTYPE svg PUBLIC "-//W3C//DTD SVG 1.1//EN" "http://www.w3.org/Graphics/SVG/1.1/DTD/svg11.dtd">
<svg version="1.1" xmlns="http://www.w3.org/2000/svg" xmlns:xlink="http://www.w3.org/1999/xlink" x="0px" y="0px" width="1000px"
	 height="763.904px" viewBox="0 0 1000 763.904" enable-background="new 0 0 1000 763.904" xml:space="preserve">
<g id="Layer_1">
</g>
<g id="Layer_3">
	<path fill="#D9D8D8" stroke="#181818" stroke-miterlimit="10" d="M56,8v159H18v214.952h38V663h294l86.333,0.016h555.331V8H56z
		 M361,662.985v0.03h-10.859L361,662.985V657H191.667l-0.167-44.125l-24.001-0.117L167.494,611l-0.063-16.417L167.333,569h-95
		v-48.666h-7.333V381.952h5.333v-9.619h-5.333V311h6v-5.333h-6V241h6v-4.667h-6V173h6.667v-6h-6.667V92.334h82V111h5.333V92.334
		h74.667V111h6V92.334h75.333V111h6V92.334h71.333v18h12v-18h72v18h6.667v-18h74.667v18h6v-18h75.333v17.333h5.333V92.334h81.335
		v323.999H424.335V479h-5.333v16.5v15.875v38.958h262.665v18h-63.333v12h-25.333v82 M361,662.985 M425.167,662.814"/>
	<rect x="425.333" y="656.938" fill="#D9D8D8" stroke="#181818" stroke-miterlimit="10" width="125.333" height="5.896"/>
	<polyline fill="none" stroke="#181818" stroke-miterlimit="10" points="360.5,742.501 350.167,742.501 350.167,663.016 	"/>
	<polyline fill="none" stroke="#181818" stroke-miterlimit="10" points="425.333,742.501 435.667,742.501 435.667,663.016 	"/>
	<polyline fill="#D9D8D8" stroke="#181818" stroke-miterlimit="10" points="365.333,511.334 365.333,552 95.333,552 95.333,511.501 
			"/>
	<polyline fill="#D9D8D8" stroke="#181818" stroke-miterlimit="10" points="95.333,496.334 95.333,478.666 100.333,478.666 
		100.333,416 358.667,416 358.667,478.666 365.333,478.666 365.333,495.667 	"/>
	<path opacity="0.1" fill="#D9D8D8" stroke="#181818" stroke-miterlimit="10" d="M95.333,496.334"/>
	<path opacity="0.1" fill="#D9D8D8" stroke="#181818" stroke-miterlimit="10" d="M95.333,511.501"/>
	<path fill="#D9D8D8" stroke="#181818" stroke-miterlimit="10" d="M95.333,511.501"/>
	<rect x="95.833" y="488" fill="#D9D8D8" width="269" height="38.5"/>
	<line fill="none" stroke="#181818" stroke-miterlimit="10" x1="100.333" y1="478.666" x2="358.667" y2="478.666"/>
	<polyline fill="none" stroke="#181818" stroke-miterlimit="10" points="424.335,479 555.667,479 555.667,550.333 	"/>
	<rect x="413.417" y="495.5" fill="#FFFFFF" width="6.146" height="15.875"/>
	<rect x="254" y="618.001" fill="#D9D8D8" stroke="#181818" stroke-miterlimit="10" width="92" height="38.937"/>
	<rect x="254" y="618.001" fill="#D9D8D8" stroke="#181818" stroke-miterlimit="10" width="9.2" height="38.937"/>
	<rect x="263.2" y="618.001" fill="#D9D8D8" stroke="#181818" stroke-miterlimit="10" width="9.2" height="38.937"/>
	<rect x="272.4" y="618.001" fill="#D9D8D8" stroke="#181818" stroke-miterlimit="10" width="9.2" height="38.937"/>
	<rect x="281.601" y="618.001" fill="#D9D8D8" stroke="#181818" stroke-miterlimit="10" width="9.2" height="38.937"/>
	<rect x="290.801" y="618.001" fill="#D9D8D8" stroke="#181818" stroke-miterlimit="10" width="9.2" height="38.937"/>
	<rect x="300.001" y="618.001" fill="#D9D8D8" stroke="#181818" stroke-miterlimit="10" width="9.2" height="38.937"/>
	<rect x="309.201" y="618.001" fill="#D9D8D8" stroke="#181818" stroke-miterlimit="10" width="9.2" height="38.937"/>
	<rect x="318.401" y="618.001" fill="#D9D8D8" stroke="#181818" stroke-miterlimit="10" width="9.2" height="38.937"/>
	<rect x="327.602" y="618.001" fill="#D9D8D8" stroke="#181818" stroke-miterlimit="10" width="9.2" height="38.937"/>
	<rect x="83.063" y="563.5" fill="#FFFFFF" width="11.875" height="6"/>
	<rect x="166.917" y="594.896" fill="#FFFFFF" width="6" height="16.022"/>
	<rect x="171.905" y="607.323" fill="#FFFFFF" width="13.345" height="6"/>
	<g>
		<rect x="151.959" y="111.667" fill="#FFFFFF" stroke="#181818" stroke-miterlimit="10" width="24.166" height="252.5"/>
		<rect x="151.959" y="111.667" fill="#FFFFFF" stroke="#181818" stroke-miterlimit="10" width="24.166" height="252.5"/>
		<rect x="151.959" y="352.689" fill="#FFFFFF" stroke="#181818" stroke-miterlimit="10" width="24.166" height="11.478"/>
		<rect x="151.959" y="341.212" fill="#FFFFFF" stroke="#181818" stroke-miterlimit="10" width="24.166" height="11.477"/>
		<rect x="151.959" y="329.735" fill="#FFFFFF" stroke="#181818" stroke-miterlimit="10" width="24.166" height="11.477"/>
		<rect x="151.959" y="318.258" fill="#FFFFFF" stroke="#181818" stroke-miterlimit="10" width="24.166" height="11.477"/>
		<rect x="151.959" y="306.781" fill="#FFFFFF" stroke="#181818" stroke-miterlimit="10" width="24.166" height="11.477"/>
		<rect x="151.959" y="295.304" fill="#FFFFFF" stroke="#181818" stroke-miterlimit="10" width="24.166" height="11.477"/>
		<rect x="151.959" y="283.827" fill="#FFFFFF" stroke="#181818" stroke-miterlimit="10" width="24.166" height="11.477"/>
		<rect x="151.959" y="272.35" fill="#FFFFFF" stroke="#181818" stroke-miterlimit="10" width="24.166" height="11.477"/>
		<rect x="151.959" y="260.873" fill="#FFFFFF" stroke="#181818" stroke-miterlimit="10" width="24.166" height="11.477"/>
		<rect x="151.959" y="249.396" fill="#FFFFFF" stroke="#181818" stroke-miterlimit="10" width="24.166" height="11.477"/>
		<rect x="151.959" y="237.919" fill="#FFFFFF" stroke="#181818" stroke-miterlimit="10" width="24.166" height="11.477"/>
		<rect x="151.959" y="226.442" fill="#FFFFFF" stroke="#181818" stroke-miterlimit="10" width="24.166" height="11.477"/>
		<rect x="151.959" y="214.965" fill="#FFFFFF" stroke="#181818" stroke-miterlimit="10" width="24.166" height="11.477"/>
		<rect x="151.959" y="203.488" fill="#FFFFFF" stroke="#181818" stroke-miterlimit="10" width="24.166" height="11.477"/>
		<rect x="151.959" y="192.011" fill="#FFFFFF" stroke="#181818" stroke-miterlimit="10" width="24.166" height="11.477"/>
		<rect x="151.959" y="180.534" fill="#FFFFFF" stroke="#181818" stroke-miterlimit="10" width="24.166" height="11.477"/>
		<rect x="151.959" y="169.057" fill="#FFFFFF" stroke="#181818" stroke-miterlimit="10" width="24.166" height="11.477"/>
		<rect x="151.959" y="157.58" fill="#FFFFFF" stroke="#181818" stroke-miterlimit="10" width="24.166" height="11.477"/>
		<rect x="151.959" y="146.103" fill="#FFFFFF" stroke="#181818" stroke-miterlimit="10" width="24.166" height="11.477"/>
		<rect x="151.959" y="134.625" fill="#FFFFFF" stroke="#181818" stroke-miterlimit="10" width="24.166" height="11.477"/>
		<rect x="151.959" y="123.148" fill="#FFFFFF" stroke="#181818" stroke-miterlimit="10" width="24.166" height="11.477"/>
		<rect x="151.959" y="111.671" fill="#FFFFFF" stroke="#181818" stroke-miterlimit="10" width="24.166" height="11.477"/>
		<line fill="#FFFFFF" stroke="#181818" stroke-miterlimit="10" x1="164.042" y1="111.667" x2="164.042" y2="364.167"/>
	</g>
	<g>
		<rect x="218.25" y="111.667" fill="#FFFFFF" stroke="#181818" stroke-miterlimit="10" width="24.166" height="252.5"/>
		<rect x="218.25" y="111.667" fill="#FFFFFF" stroke="#181818" stroke-miterlimit="10" width="24.166" height="252.5"/>
		<rect x="218.25" y="352.689" fill="#FFFFFF" stroke="#181818" stroke-miterlimit="10" width="24.166" height="11.478"/>
		<rect x="218.25" y="341.212" fill="#FFFFFF" stroke="#181818" stroke-miterlimit="10" width="24.166" height="11.477"/>
		<rect x="218.25" y="329.735" fill="#FFFFFF" stroke="#181818" stroke-miterlimit="10" width="24.166" height="11.477"/>
		<rect x="218.25" y="318.258" fill="#FFFFFF" stroke="#181818" stroke-miterlimit="10" width="24.166" height="11.477"/>
		<rect x="218.25" y="306.781" fill="#FFFFFF" stroke="#181818" stroke-miterlimit="10" width="24.166" height="11.477"/>
		<rect x="218.25" y="295.304" fill="#FFFFFF" stroke="#181818" stroke-miterlimit="10" width="24.166" height="11.477"/>
		<rect x="218.25" y="283.827" fill="#FFFFFF" stroke="#181818" stroke-miterlimit="10" width="24.166" height="11.477"/>
		<rect x="218.25" y="272.35" fill="#FFFFFF" stroke="#181818" stroke-miterlimit="10" width="24.166" height="11.477"/>
		<rect x="218.25" y="260.873" fill="#FFFFFF" stroke="#181818" stroke-miterlimit="10" width="24.166" height="11.477"/>
		<rect x="218.25" y="249.396" fill="#FFFFFF" stroke="#181818" stroke-miterlimit="10" width="24.166" height="11.477"/>
		<rect x="218.25" y="237.919" fill="#FFFFFF" stroke="#181818" stroke-miterlimit="10" width="24.166" height="11.477"/>
		<rect x="218.25" y="226.442" fill="#FFFFFF" stroke="#181818" stroke-miterlimit="10" width="24.166" height="11.477"/>
		<rect x="218.25" y="214.965" fill="#FFFFFF" stroke="#181818" stroke-miterlimit="10" width="24.166" height="11.477"/>
		<rect x="218.25" y="203.488" fill="#FFFFFF" stroke="#181818" stroke-miterlimit="10" width="24.166" height="11.477"/>
		<rect x="218.25" y="192.011" fill="#FFFFFF" stroke="#181818" stroke-miterlimit="10" width="24.166" height="11.477"/>
		<rect x="218.25" y="180.534" fill="#FFFFFF" stroke="#181818" stroke-miterlimit="10" width="24.166" height="11.477"/>
		<rect x="218.25" y="169.057" fill="#FFFFFF" stroke="#181818" stroke-miterlimit="10" width="24.166" height="11.477"/>
		<rect x="218.25" y="157.58" fill="#FFFFFF" stroke="#181818" stroke-miterlimit="10" width="24.166" height="11.477"/>
		<rect x="218.25" y="146.103" fill="#FFFFFF" stroke="#181818" stroke-miterlimit="10" width="24.166" height="11.477"/>
		<rect x="218.25" y="134.625" fill="#FFFFFF" stroke="#181818" stroke-miterlimit="10" width="24.166" height="11.477"/>
		<rect x="218.25" y="123.148" fill="#FFFFFF" stroke="#181818" stroke-miterlimit="10" width="24.166" height="11.477"/>
		<rect x="218.25" y="111.671" fill="#FFFFFF" stroke="#181818" stroke-miterlimit="10" width="24.166" height="11.477"/>
		<line fill="#FFFFFF" stroke="#181818" stroke-miterlimit="10" x1="230.333" y1="111.667" x2="230.333" y2="364.167"/>
	</g>
	<g>
		<rect x="284.334" y="111.667" fill="#FFFFFF" stroke="#181818" stroke-miterlimit="10" width="24.166" height="252.5"/>
		<rect x="284.334" y="111.667" fill="#FFFFFF" stroke="#181818" stroke-miterlimit="10" width="24.166" height="252.5"/>
		<rect x="284.334" y="352.689" fill="#FFFFFF" stroke="#181818" stroke-miterlimit="10" width="24.166" height="11.478"/>
		<rect x="284.334" y="341.212" fill="#FFFFFF" stroke="#181818" stroke-miterlimit="10" width="24.166" height="11.477"/>
		<rect x="284.334" y="329.735" fill="#FFFFFF" stroke="#181818" stroke-miterlimit="10" width="24.166" height="11.477"/>
		<rect x="284.334" y="318.258" fill="#FFFFFF" stroke="#181818" stroke-miterlimit="10" width="24.166" height="11.477"/>
		<rect x="284.334" y="306.781" fill="#FFFFFF" stroke="#181818" stroke-miterlimit="10" width="24.166" height="11.477"/>
		<rect x="284.334" y="295.304" fill="#FFFFFF" stroke="#181818" stroke-miterlimit="10" width="24.166" height="11.477"/>
		<rect x="284.334" y="283.827" fill="#FFFFFF" stroke="#181818" stroke-miterlimit="10" width="24.166" height="11.477"/>
		<rect x="284.334" y="272.35" fill="#FFFFFF" stroke="#181818" stroke-miterlimit="10" width="24.166" height="11.477"/>
		<rect x="284.334" y="260.873" fill="#FFFFFF" stroke="#181818" stroke-miterlimit="10" width="24.166" height="11.477"/>
		<rect x="284.334" y="249.396" fill="#FFFFFF" stroke="#181818" stroke-miterlimit="10" width="24.166" height="11.477"/>
		<rect x="284.334" y="237.919" fill="#FFFFFF" stroke="#181818" stroke-miterlimit="10" width="24.166" height="11.477"/>
		<rect x="284.334" y="226.442" fill="#FFFFFF" stroke="#181818" stroke-miterlimit="10" width="24.166" height="11.477"/>
		<rect x="284.334" y="214.965" fill="#FFFFFF" stroke="#181818" stroke-miterlimit="10" width="24.166" height="11.477"/>
		<rect x="284.334" y="203.488" fill="#FFFFFF" stroke="#181818" stroke-miterlimit="10" width="24.166" height="11.477"/>
		<rect x="284.334" y="192.011" fill="#FFFFFF" stroke="#181818" stroke-miterlimit="10" width="24.166" height="11.477"/>
		<rect x="284.334" y="180.534" fill="#FFFFFF" stroke="#181818" stroke-miterlimit="10" width="24.166" height="11.477"/>
		<rect x="284.334" y="169.057" fill="#FFFFFF" stroke="#181818" stroke-miterlimit="10" width="24.166" height="11.477"/>
		<rect x="284.334" y="157.58" fill="#FFFFFF" stroke="#181818" stroke-miterlimit="10" width="24.166" height="11.477"/>
		<rect x="284.334" y="146.103" fill="#FFFFFF" stroke="#181818" stroke-miterlimit="10" width="24.166" height="11.477"/>
		<rect x="284.334" y="134.625" fill="#FFFFFF" stroke="#181818" stroke-miterlimit="10" width="24.166" height="11.477"/>
		<rect x="284.334" y="123.148" fill="#FFFFFF" stroke="#181818" stroke-miterlimit="10" width="24.166" height="11.477"/>
		<rect x="284.334" y="111.671" fill="#FFFFFF" stroke="#181818" stroke-miterlimit="10" width="24.166" height="11.477"/>
		<line fill="#FFFFFF" stroke="#181818" stroke-miterlimit="10" x1="296.417" y1="111.667" x2="296.417" y2="364.167"/>
	</g>
	<g>
		<rect x="356.334" y="111.667" fill="#FFFFFF" stroke="#181818" stroke-miterlimit="10" width="24.166" height="252.5"/>
		<rect x="356.334" y="111.667" fill="#FFFFFF" stroke="#181818" stroke-miterlimit="10" width="24.166" height="252.5"/>
		<rect x="356.334" y="352.689" fill="#FFFFFF" stroke="#181818" stroke-miterlimit="10" width="24.166" height="11.478"/>
		<rect x="356.334" y="341.212" fill="#FFFFFF" stroke="#181818" stroke-miterlimit="10" width="24.166" height="11.477"/>
		<rect x="356.334" y="329.735" fill="#FFFFFF" stroke="#181818" stroke-miterlimit="10" width="24.166" height="11.477"/>
		<rect x="356.334" y="318.258" fill="#FFFFFF" stroke="#181818" stroke-miterlimit="10" width="24.166" height="11.477"/>
		<rect x="356.334" y="306.781" fill="#FFFFFF" stroke="#181818" stroke-miterlimit="10" width="24.166" height="11.477"/>
		<rect x="356.334" y="295.304" fill="#FFFFFF" stroke="#181818" stroke-miterlimit="10" width="24.166" height="11.477"/>
		<rect x="356.334" y="283.827" fill="#FFFFFF" stroke="#181818" stroke-miterlimit="10" width="24.166" height="11.477"/>
		<rect x="356.334" y="272.35" fill="#FFFFFF" stroke="#181818" stroke-miterlimit="10" width="24.166" height="11.477"/>
		<rect x="356.334" y="260.873" fill="#FFFFFF" stroke="#181818" stroke-miterlimit="10" width="24.166" height="11.477"/>
		<rect x="356.334" y="249.396" fill="#FFFFFF" stroke="#181818" stroke-miterlimit="10" width="24.166" height="11.477"/>
		<rect x="356.334" y="237.919" fill="#FFFFFF" stroke="#181818" stroke-miterlimit="10" width="24.166" height="11.477"/>
		<rect x="356.334" y="226.442" fill="#FFFFFF" stroke="#181818" stroke-miterlimit="10" width="24.166" height="11.477"/>
		<rect x="356.334" y="214.965" fill="#FFFFFF" stroke="#181818" stroke-miterlimit="10" width="24.166" height="11.477"/>
		<rect x="356.334" y="203.488" fill="#FFFFFF" stroke="#181818" stroke-miterlimit="10" width="24.166" height="11.477"/>
		<rect x="356.334" y="192.011" fill="#FFFFFF" stroke="#181818" stroke-miterlimit="10" width="24.166" height="11.477"/>
		<rect x="356.334" y="180.534" fill="#FFFFFF" stroke="#181818" stroke-miterlimit="10" width="24.166" height="11.477"/>
		<rect x="356.334" y="169.057" fill="#FFFFFF" stroke="#181818" stroke-miterlimit="10" width="24.166" height="11.477"/>
		<rect x="356.334" y="157.58" fill="#FFFFFF" stroke="#181818" stroke-miterlimit="10" width="24.166" height="11.477"/>
		<rect x="356.334" y="146.103" fill="#FFFFFF" stroke="#181818" stroke-miterlimit="10" width="24.166" height="11.477"/>
		<rect x="356.334" y="134.625" fill="#FFFFFF" stroke="#181818" stroke-miterlimit="10" width="24.166" height="11.477"/>
		<rect x="356.334" y="123.148" fill="#FFFFFF" stroke="#181818" stroke-miterlimit="10" width="24.166" height="11.477"/>
		<rect x="356.334" y="111.671" fill="#FFFFFF" stroke="#181818" stroke-miterlimit="10" width="24.166" height="11.477"/>
		<line fill="#FFFFFF" stroke="#181818" stroke-miterlimit="10" x1="368.417" y1="111.667" x2="368.417" y2="364.167"/>
	</g>
	<polyline fill="none" stroke="#181818" stroke-miterlimit="10" points="451.333,102.667 451.333,258.667 570,258.667 	"/>
	<line fill="none" stroke="#181818" stroke-miterlimit="10" x1="602" y1="258.667" x2="709.333" y2="258.667"/>
	<line fill="none" stroke="#181818" stroke-miterlimit="10" x1="451.333" y1="195.667" x2="570" y2="195.667"/>
	<line fill="none" stroke="#181818" stroke-miterlimit="10" x1="602" y1="195.667" x2="709.333" y2="195.667"/>
	<g>
		<rect x="455.333" y="216.667" fill="#FFFFFF" stroke="#181818" stroke-miterlimit="10" width="114.667" height="21.253"/>
		<rect x="455.333" y="216.667" fill="#FFFFFF" stroke="#181818" stroke-miterlimit="10" width="19.111" height="21.253"/>
		<rect x="474.445" y="216.667" fill="#FFFFFF" stroke="#181818" stroke-miterlimit="10" width="19.111" height="21.253"/>
		<rect x="493.556" y="216.667" fill="#FFFFFF" stroke="#181818" stroke-miterlimit="10" width="19.112" height="21.253"/>
		<rect x="512.668" y="216.667" fill="#FFFFFF" stroke="#181818" stroke-miterlimit="10" width="19.111" height="21.253"/>
		<rect x="531.779" y="216.667" fill="#FFFFFF" stroke="#181818" stroke-miterlimit="10" width="19.111" height="21.253"/>
		<rect x="550.891" y="216.667" fill="#FFFFFF" stroke="#181818" stroke-miterlimit="10" width="19.111" height="21.253"/>
		<line fill="#FFFFFF" stroke="#181818" stroke-miterlimit="10" x1="455.333" y1="227" x2="570" y2="227"/>
	</g>
	<g>
		<rect x="455.333" y="158.431" fill="#FFFFFF" stroke="#181818" stroke-miterlimit="10" width="114.667" height="21.253"/>
		<rect x="455.333" y="158.431" fill="#FFFFFF" stroke="#181818" stroke-miterlimit="10" width="19.111" height="21.253"/>
		<rect x="474.445" y="158.431" fill="#FFFFFF" stroke="#181818" stroke-miterlimit="10" width="19.111" height="21.253"/>
		<rect x="493.556" y="158.431" fill="#FFFFFF" stroke="#181818" stroke-miterlimit="10" width="19.112" height="21.253"/>
		<rect x="512.668" y="158.431" fill="#FFFFFF" stroke="#181818" stroke-miterlimit="10" width="19.111" height="21.253"/>
		<rect x="531.779" y="158.431" fill="#FFFFFF" stroke="#181818" stroke-miterlimit="10" width="19.111" height="21.253"/>
		<rect x="550.891" y="158.431" fill="#FFFFFF" stroke="#181818" stroke-miterlimit="10" width="19.111" height="21.253"/>
		<line fill="#FFFFFF" stroke="#181818" stroke-miterlimit="10" x1="455.333" y1="168.764" x2="570" y2="168.764"/>
	</g>
	<rect x="455.333" y="112.522" fill="#FFFFFF" stroke="#181818" stroke-miterlimit="10" width="114.667" height="10.626"/>
	<rect x="455.333" y="112.522" fill="#FFFFFF" stroke="#181818" stroke-miterlimit="10" width="19.111" height="10.626"/>
	<rect x="474.445" y="112.522" fill="#FFFFFF" stroke="#181818" stroke-miterlimit="10" width="19.111" height="10.626"/>
	<rect x="493.556" y="112.522" fill="#FFFFFF" stroke="#181818" stroke-miterlimit="10" width="19.112" height="10.626"/>
	<rect x="512.668" y="112.522" fill="#FFFFFF" stroke="#181818" stroke-miterlimit="10" width="19.111" height="10.626"/>
	<rect x="531.779" y="112.522" fill="#FFFFFF" stroke="#181818" stroke-miterlimit="10" width="19.111" height="10.626"/>
	<rect x="550.891" y="112.522" fill="#FFFFFF" stroke="#181818" stroke-miterlimit="10" width="19.111" height="10.626"/>
	<rect x="570" y="112.522" fill="#FFFFFF" stroke="#181818" stroke-miterlimit="10" width="19.111" height="10.626"/>
	<rect x="589.109" y="112.522" fill="#FFFFFF" stroke="#181818" stroke-miterlimit="10" width="19.111" height="10.626"/>
	<rect x="608.219" y="112.522" fill="#FFFFFF" stroke="#181818" stroke-miterlimit="10" width="19.111" height="10.626"/>
	<rect x="627.328" y="112.522" fill="#FFFFFF" stroke="#181818" stroke-miterlimit="10" width="19.111" height="10.626"/>
	<line fill="#FFFFFF" stroke="#181818" stroke-miterlimit="10" x1="455.333" y1="122.856" x2="646.439" y2="122.856"/>
	<rect x="611.444" y="158.431" fill="#FFFFFF" stroke="#181818" stroke-miterlimit="10" width="95.556" height="21.253"/>
	<rect x="611.445" y="158.431" fill="#FFFFFF" stroke="#181818" stroke-miterlimit="10" width="19.111" height="21.253"/>
	<rect x="630.557" y="158.431" fill="#FFFFFF" stroke="#181818" stroke-miterlimit="10" width="19.111" height="21.253"/>
	<rect x="649.668" y="158.431" fill="#FFFFFF" stroke="#181818" stroke-miterlimit="10" width="19.111" height="21.253"/>
	<rect x="668.779" y="158.431" fill="#FFFFFF" stroke="#181818" stroke-miterlimit="10" width="19.111" height="21.253"/>
	<rect x="687.891" y="158.431" fill="#FFFFFF" stroke="#181818" stroke-miterlimit="10" width="19.111" height="21.253"/>
	<line fill="#FFFFFF" stroke="#181818" stroke-miterlimit="10" x1="611.444" y1="168.764" x2="707" y2="168.764"/>
	<rect x="611.444" y="216.374" fill="#FFFFFF" stroke="#181818" stroke-miterlimit="10" width="95.556" height="21.253"/>
	<rect x="611.445" y="216.374" fill="#FFFFFF" stroke="#181818" stroke-miterlimit="10" width="19.111" height="21.253"/>
	<rect x="630.557" y="216.374" fill="#FFFFFF" stroke="#181818" stroke-miterlimit="10" width="19.111" height="21.253"/>
	<rect x="649.668" y="216.374" fill="#FFFFFF" stroke="#181818" stroke-miterlimit="10" width="19.111" height="21.253"/>
	<rect x="668.779" y="216.374" fill="#FFFFFF" stroke="#181818" stroke-miterlimit="10" width="19.111" height="21.253"/>
	<rect x="687.891" y="216.374" fill="#FFFFFF" stroke="#181818" stroke-miterlimit="10" width="19.111" height="21.253"/>
	<line fill="#FFFFFF" stroke="#181818" stroke-miterlimit="10" x1="611.444" y1="226.707" x2="707" y2="226.707"/>
	<rect x="602" y="268.667" opacity="0.5" fill="#C2D461" width="117.002" height="147.333"/>
	<rect x="424.335" y="352.689" opacity="0.5" fill="#966AA6" width="136.111" height="63.644"/>
	<g>
		<path d="M371.007,383.067l-0.615-2.702h-2.791l-0.615,2.702h-1.992l2.651-10.752h2.703l2.659,10.752H371.007z M370.018,378.6
			l-0.571-2.49c-0.034-0.151-0.111-0.531-0.231-1.139c-0.12-0.608-0.191-1.015-0.216-1.22c-0.063,0.42-0.144,0.883-0.242,1.388
			c-0.098,0.506-0.352,1.659-0.762,3.461H370.018z"/>
	</g>
	<g>
		<path d="M439.406,171.958h-1.978V161.25h4.797v1.721h-2.82v2.975h2.629v1.721h-2.629V171.958z"/>
	</g>
	<g>
		<path d="M442.13,120.736h-4.827v-10.708h4.827v1.721h-2.834v2.549h2.629v1.729h-2.629v2.967h2.834V120.736z"/>
	</g>
	<g>
		<path d="M439.662,224.253h3.274v5.494c-0.928,0.395-1.914,0.593-2.959,0.593c-1.245,0-2.204-0.474-2.875-1.421
			s-1.007-2.312-1.007-4.094c0-1.719,0.385-3.064,1.153-4.036c0.77-0.972,1.845-1.458,3.227-1.458c0.854,0,1.67,0.221,2.446,0.66
			l-0.63,1.625c-0.605-0.352-1.172-0.527-1.699-0.527c-0.757,0-1.356,0.339-1.798,1.015c-0.442,0.677-0.663,1.599-0.663,2.765
			c0,1.201,0.16,2.122,0.479,2.762s0.785,0.959,1.396,0.959c0.322,0,0.649-0.041,0.981-0.124v-2.454h-1.326V224.253z"/>
	</g>
	<g>
		<path d="M601.973,171.665h-1.992v-4.694h-2.63v4.694h-1.992v-10.708h1.992v4.256h2.63v-4.256h1.992V171.665z"/>
	</g>
	<g>
		<path d="M597.721,229.607v-10.708h1.875v10.708H597.721z"/>
	</g>
	<g>
		<path d="M293.561,372.359h2.732c1.113,0,1.924,0.216,2.432,0.648c0.508,0.432,0.762,1.119,0.762,2.062
			c0,0.62-0.134,1.139-0.403,1.557c-0.269,0.417-0.635,0.67-1.099,0.758v0.073c0.605,0.151,1.042,0.435,1.311,0.85
			s0.403,0.967,0.403,1.655c0,0.972-0.26,1.732-0.78,2.281c-0.52,0.55-1.231,0.824-2.135,0.824h-3.223V372.359z M295.436,376.666
			h0.916c0.42,0,0.715-0.112,0.886-0.337s0.256-0.559,0.256-1.003s-0.098-0.764-0.293-0.956c-0.195-0.193-0.503-0.29-0.923-0.29
			h-0.842V376.666z M295.436,378.328v2.996h1.003c0.415,0,0.724-0.127,0.926-0.381s0.304-0.646,0.304-1.18
			c0-0.956-0.42-1.436-1.26-1.436H295.436z"/>
	</g>
	<g>
		<path d="M231.359,373.949c-0.571,0-1.021,0.334-1.352,1.003c-0.329,0.669-0.494,1.6-0.494,2.79c0,2.481,0.647,3.721,1.941,3.721
			c0.566,0,1.16-0.18,1.78-0.541v1.771c-0.522,0.348-1.191,0.521-2.007,0.521c-1.206,0-2.133-0.479-2.779-1.439
			c-0.647-0.959-0.971-2.308-0.971-4.046s0.333-3.094,1-4.065c0.666-0.972,1.593-1.458,2.779-1.458c0.391,0,0.766,0.055,1.124,0.162
			c0.359,0.107,0.744,0.295,1.154,0.563l-0.659,1.618c-0.22-0.15-0.454-0.289-0.703-0.413
			C231.923,374.011,231.652,373.949,231.359,373.949z"/>
	</g>
	<g>
		<path d="M167.613,377.611c0,1.768-0.36,3.118-1.081,4.054c-0.72,0.935-1.756,1.402-3.109,1.402h-2.622v-10.708h2.864
			c1.245,0,2.214,0.46,2.908,1.381C167.266,374.66,167.613,375.951,167.613,377.611z M165.569,377.67c0-2.393-0.659-3.59-1.978-3.59
			h-0.798v7.244h0.645c0.728,0,1.265-0.304,1.611-0.912C165.396,379.805,165.569,378.891,165.569,377.67z"/>
	</g>
	<g>
		<path fill="#161616" d="M627.115,351.371v-12.136h2.125v12.136H627.115z"/>
		<path fill="#161616" d="M640.729,351.371h-2.756l-3.752-8.79h-0.108c0.139,0.669,0.208,1.389,0.208,2.158v6.632h-2.092v-12.136
			h2.772l3.719,8.699h0.092c-0.105-0.581-0.158-1.272-0.158-2.075v-6.624h2.075V351.371z"/>
		<path fill="#161616" d="M645.537,351.371h-2.24v-12.136h5.437v1.951h-3.196v3.369h2.98v1.951h-2.98V351.371z"/>
		<path fill="#161616" d="M659.027,345.286c0,2.01-0.376,3.553-1.129,4.633c-0.752,1.078-1.828,1.618-3.229,1.618
			c-1.406,0-2.484-0.538-3.237-1.614s-1.129-2.627-1.129-4.652c0-2.01,0.376-3.549,1.129-4.62c0.753-1.07,1.837-1.606,3.254-1.606
			c1.399,0,2.474,0.539,3.221,1.615S659.027,343.278,659.027,345.286z M652.611,345.286c0,1.384,0.174,2.438,0.523,3.163
			c0.348,0.725,0.859,1.087,1.535,1.087c1.361,0,2.042-1.416,2.042-4.25c0-2.833-0.675-4.25-2.025-4.25
			c-0.687,0-1.204,0.361-1.552,1.084C652.785,342.842,652.611,343.897,652.611,345.286z"/>
		<path fill="#161616" d="M667.837,342.971c0,1.289-0.325,2.278-0.976,2.968c-0.65,0.688-1.59,1.033-2.818,1.033h-0.564v4.399
			h-2.258v-12.136h3.08C666.658,339.235,667.837,340.48,667.837,342.971z M663.479,345.013h0.432c0.554,0,0.967-0.152,1.237-0.457
			c0.271-0.304,0.407-0.802,0.407-1.494c0-0.636-0.125-1.107-0.374-1.415c-0.249-0.307-0.634-0.46-1.153-0.46h-0.549V345.013z"/>
		<path fill="#161616" d="M670.195,351.371v-12.136h2.125v12.136H670.195z"/>
		<path fill="#161616" d="M680.839,348.026c0,1.134-0.286,2.003-0.859,2.605c-0.572,0.604-1.398,0.905-2.478,0.905
			c-1.057,0-1.956-0.208-2.697-0.622v-2.233c0.907,0.592,1.74,0.888,2.498,0.888c0.432,0,0.757-0.118,0.976-0.356
			c0.218-0.238,0.327-0.562,0.327-0.972c0-0.403-0.129-0.772-0.39-1.107s-0.688-0.707-1.286-1.117
			c-0.521-0.359-0.915-0.704-1.184-1.033c-0.268-0.329-0.476-0.698-0.622-1.107c-0.147-0.41-0.22-0.886-0.22-1.428
			c0-1.041,0.289-1.865,0.867-2.475c0.578-0.608,1.354-0.912,2.328-0.912c0.93,0,1.823,0.26,2.682,0.779l-0.748,1.811
			c-0.266-0.155-0.543-0.294-0.834-0.416c-0.29-0.121-0.602-0.182-0.934-0.182c-0.365,0-0.646,0.12-0.843,0.36
			c-0.196,0.241-0.294,0.569-0.294,0.983c0,0.41,0.117,0.767,0.353,1.071s0.646,0.65,1.232,1.038
			c0.792,0.531,1.343,1.073,1.656,1.627C680.683,346.687,680.839,347.317,680.839,348.026z"/>
		<path fill="#161616" d="M686.485,351.371h-2.249V341.22h-2.324v-1.984h6.897v1.984h-2.324V351.371z"/>
		<path fill="#161616" d="M696,351.371h-5.471v-12.136H696v1.951h-3.213v2.889h2.98v1.959h-2.98v3.361H696V351.371z"/>
	</g>
	<g>
		<path fill="#161616" d="M448.915,390.931h-2.25v-10.151h-2.324v-1.984h6.898v1.984h-2.324V390.931z"/>
		<path fill="#161616" d="M458.429,390.931h-5.47v-12.136h5.47v1.951h-3.212v2.889h2.98v1.959h-2.98v3.361h3.212V390.931z"/>
		<path fill="#161616" d="M468.185,390.931h-2.407l-1.992-5.188l-0.905,0.905v4.283h-2.258v-12.136h2.258v6.018l0.789-1.817
			l2.067-4.2h2.416l-2.806,5.254L468.185,390.931z"/>
		<path fill="#161616" d="M477.242,390.931h-2.407l-1.992-5.188l-0.905,0.905v4.283h-2.258v-12.136h2.258v6.018l0.789-1.817
			l2.067-4.2h2.416l-2.806,5.254L477.242,390.931z"/>
		<path fill="#161616" d="M484.208,390.931h-5.47v-12.136h5.47v1.951h-3.212v2.889h2.98v1.959h-2.98v3.361h3.212V390.931z"/>
		<path fill="#161616" d="M494.901,390.931h-2.756l-3.752-8.79h-0.108c0.138,0.669,0.208,1.389,0.208,2.158v6.632h-2.092v-12.136
			h2.772l3.719,8.699h0.091c-0.105-0.581-0.158-1.272-0.158-2.075v-6.624h2.075V390.931z"/>
		<path fill="#161616" d="M501.62,387.345v-1.942h4.175v1.942H501.62z"/>
		<path fill="#161616" d="M513.633,390.931l-0.697-3.063h-3.162l-0.697,3.063h-2.258l3.004-12.186h3.063l3.013,12.186H513.633z
			 M512.512,385.867l-0.646-2.822c-0.039-0.172-0.127-0.602-0.262-1.291c-0.136-0.688-0.217-1.149-0.245-1.382
			c-0.071,0.476-0.163,1-0.274,1.573c-0.11,0.572-0.398,1.88-0.863,3.922H512.512z"/>
		<path fill="#161616" d="M517.395,390.931v-12.136h2.258v10.16h3.13v1.976H517.395z"/>
		<path fill="#161616" d="M532.113,378.795v7.853c0,1.444-0.326,2.547-0.979,3.308c-0.653,0.761-1.598,1.142-2.831,1.142
			c-1.206,0-2.125-0.378-2.756-1.133c-0.631-0.756-0.946-1.872-0.946-3.35v-7.819h2.241v7.985c0,1.544,0.512,2.315,1.536,2.315
			c0.476,0,0.844-0.196,1.104-0.589s0.391-0.952,0.391-1.677v-8.035H532.113z"/>
		<path fill="#161616" d="M540.101,390.931h-5.47v-12.136h5.47v1.951h-3.212v2.889h2.979v1.959h-2.979v3.361h3.212V390.931z"/>
	</g>
	<rect x="72.334" y="569" opacity="0.5" fill="#50A6D2" width="119.333" height="88"/>
	<rect x="95.833" y="478.666" opacity="0.5" fill="#50A6D2" width="269.5" height="73.334"/>
	<rect x="419.002" y="478.666" opacity="0.5" fill="#50A6D2" width="136.852" height="73.334"/>
	<g>
		<path fill="#161616" d="M102.842,608.452h2.274l-2.855,12.136h-2.872l-2.839-12.136h2.274l1.585,7.412
			c0.144,0.631,0.285,1.536,0.423,2.715c0.116-1.002,0.263-1.906,0.44-2.715L102.842,608.452z"/>
		<path fill="#161616" d="M112.082,620.588h-5.47v-12.136h5.47v1.951h-3.212v2.889h2.98v1.959h-2.98v3.361h3.212V620.588z"/>
		<path fill="#161616" d="M119.804,617.243c0,1.134-0.286,2.003-0.859,2.605c-0.572,0.604-1.398,0.905-2.478,0.905
			c-1.057,0-1.956-0.208-2.698-0.622v-2.233c0.908,0.592,1.74,0.888,2.499,0.888c0.432,0,0.757-0.118,0.976-0.356
			c0.218-0.238,0.328-0.562,0.328-0.972c0-0.403-0.13-0.772-0.39-1.107s-0.689-0.707-1.287-1.117
			c-0.52-0.359-0.915-0.704-1.183-1.033c-0.268-0.329-0.476-0.698-0.622-1.107c-0.147-0.41-0.22-0.886-0.22-1.428
			c0-1.041,0.289-1.865,0.868-2.475c0.578-0.608,1.354-0.912,2.328-0.912c0.93,0,1.823,0.26,2.681,0.779l-0.747,1.811
			c-0.266-0.155-0.543-0.294-0.834-0.416c-0.29-0.121-0.602-0.182-0.934-0.182c-0.365,0-0.646,0.12-0.843,0.36
			c-0.196,0.241-0.294,0.569-0.294,0.983c0,0.41,0.118,0.767,0.353,1.071c0.235,0.305,0.646,0.65,1.232,1.038
			c0.792,0.531,1.343,1.073,1.656,1.627C119.647,615.903,119.804,616.534,119.804,617.243z"/>
		<path fill="#161616" d="M127.251,617.243c0,1.134-0.286,2.003-0.859,2.605c-0.572,0.604-1.398,0.905-2.478,0.905
			c-1.057,0-1.956-0.208-2.698-0.622v-2.233c0.908,0.592,1.74,0.888,2.499,0.888c0.432,0,0.757-0.118,0.976-0.356
			c0.218-0.238,0.328-0.562,0.328-0.972c0-0.403-0.13-0.772-0.39-1.107s-0.689-0.707-1.287-1.117
			c-0.52-0.359-0.915-0.704-1.183-1.033c-0.268-0.329-0.476-0.698-0.622-1.107c-0.147-0.41-0.22-0.886-0.22-1.428
			c0-1.041,0.289-1.865,0.868-2.475c0.578-0.608,1.354-0.912,2.328-0.912c0.93,0,1.823,0.26,2.681,0.779l-0.747,1.811
			c-0.266-0.155-0.543-0.294-0.834-0.416c-0.29-0.121-0.602-0.182-0.934-0.182c-0.365,0-0.646,0.12-0.843,0.36
			c-0.196,0.241-0.294,0.569-0.294,0.983c0,0.41,0.118,0.767,0.353,1.071c0.235,0.305,0.646,0.65,1.232,1.038
			c0.792,0.531,1.343,1.073,1.656,1.627C127.095,615.903,127.251,616.534,127.251,617.243z"/>
		<path fill="#161616" d="M134.915,620.588l-0.697-3.063h-3.163l-0.697,3.063H128.1l3.005-12.186h3.063l3.013,12.186H134.915z
			 M133.794,615.524l-0.647-2.822c-0.039-0.172-0.126-0.602-0.262-1.291c-0.135-0.688-0.217-1.149-0.245-1.382
			c-0.072,0.476-0.163,1-0.274,1.573c-0.111,0.572-0.398,1.88-0.863,3.922H133.794z"/>
		<path fill="#161616" d="M141.822,620.588h-2.25v-10.151h-2.324v-1.984h6.898v1.984h-2.324V620.588z"/>
	</g>
	<g>
		<path fill="#161616" d="M277.696,601.51c0,1.289-0.325,2.278-0.976,2.968c-0.65,0.688-1.589,1.033-2.818,1.033h-0.564v4.399
			h-2.258v-12.136h3.08C276.517,597.774,277.696,599.02,277.696,601.51z M273.338,603.552h0.432c0.553,0,0.966-0.152,1.237-0.457
			c0.271-0.304,0.407-0.802,0.407-1.494c0-0.636-0.125-1.107-0.374-1.415c-0.249-0.307-0.634-0.46-1.154-0.46h-0.548V603.552z"/>
		<path fill="#161616" d="M287.999,603.825c0,2.01-0.376,3.553-1.129,4.633c-0.752,1.078-1.829,1.618-3.229,1.618
			c-1.406,0-2.485-0.538-3.237-1.614s-1.129-2.627-1.129-4.652c0-2.01,0.376-3.549,1.129-4.62c0.752-1.07,1.837-1.606,3.254-1.606
			c1.4,0,2.474,0.539,3.221,1.615S287.999,601.817,287.999,603.825z M281.582,603.825c0,1.384,0.174,2.438,0.523,3.163
			s0.86,1.087,1.536,1.087c1.361,0,2.042-1.416,2.042-4.25c0-2.833-0.675-4.25-2.025-4.25c-0.686,0-1.204,0.361-1.552,1.084
			C281.756,601.381,281.582,602.437,281.582,603.825z"/>
		<path fill="#161616" d="M292.45,605.187v4.724h-2.258v-12.136h2.955c1.25,0,2.173,0.296,2.769,0.889
			c0.595,0.592,0.892,1.496,0.892,2.714c0,1.533-0.518,2.604-1.552,3.212l2.333,5.321h-2.416l-1.917-4.724H292.45z M292.45,603.245
			h0.581c0.531,0,0.913-0.151,1.146-0.453s0.349-0.751,0.349-1.349c0-0.62-0.123-1.062-0.369-1.324
			c-0.247-0.263-0.627-0.394-1.142-0.394h-0.564V603.245z"/>
		<path fill="#161616" d="M302.844,609.91h-2.25v-10.151h-2.324v-1.984h6.898v1.984h-2.324V609.91z"/>
		<path fill="#161616" d="M312.051,609.91l-0.697-3.063h-3.163l-0.697,3.063h-2.258l3.005-12.186h3.063l3.013,12.186H312.051z
			 M310.931,604.847l-0.647-2.822c-0.039-0.172-0.126-0.602-0.261-1.291c-0.136-0.688-0.217-1.149-0.245-1.382
			c-0.072,0.476-0.163,1-0.274,1.573c-0.111,0.572-0.398,1.88-0.863,3.922H310.931z"/>
		<path fill="#161616" d="M321.557,609.91l-0.697-3.063h-3.163L317,609.91h-2.258l3.005-12.186h3.063l3.013,12.186H321.557z
			 M320.437,604.847l-0.647-2.822c-0.039-0.172-0.126-0.602-0.261-1.291c-0.136-0.688-0.217-1.149-0.245-1.382
			c-0.072,0.476-0.163,1-0.274,1.573c-0.111,0.572-0.398,1.88-0.863,3.922H320.437z"/>
		<path fill="#161616" d="M328.465,609.91h-2.25v-10.151h-2.324v-1.984h6.898v1.984h-2.324V609.91z"/>
	</g>
	<g>
		<path fill="#161616" d="M207.445,507.408c0,1.134-0.287,2.003-0.859,2.605c-0.573,0.604-1.399,0.905-2.478,0.905
			c-1.057,0-1.956-0.208-2.698-0.622v-2.233c0.908,0.592,1.74,0.888,2.499,0.888c0.432,0,0.757-0.118,0.975-0.356
			c0.219-0.238,0.328-0.562,0.328-0.972c0-0.403-0.13-0.772-0.39-1.107s-0.689-0.707-1.287-1.117
			c-0.52-0.359-0.915-0.704-1.183-1.033c-0.269-0.329-0.476-0.698-0.623-1.107c-0.146-0.41-0.22-0.886-0.22-1.428
			c0-1.041,0.289-1.865,0.867-2.475c0.579-0.608,1.354-0.912,2.329-0.912c0.93,0,1.823,0.26,2.681,0.779l-0.747,1.811
			c-0.266-0.155-0.544-0.294-0.834-0.416c-0.291-0.121-0.602-0.182-0.934-0.182c-0.365,0-0.646,0.12-0.842,0.36
			c-0.197,0.241-0.295,0.569-0.295,0.983c0,0.41,0.118,0.767,0.353,1.071c0.235,0.305,0.646,0.65,1.233,1.038
			c0.792,0.531,1.343,1.073,1.656,1.627C207.289,506.068,207.445,506.699,207.445,507.408z"/>
		<path fill="#161616" d="M216.826,498.617v7.853c0,1.444-0.327,2.547-0.979,3.308s-1.597,1.142-2.831,1.142
			c-1.207,0-2.125-0.378-2.756-1.133c-0.631-0.756-0.946-1.872-0.946-3.35v-7.819h2.241v7.985c0,1.544,0.512,2.315,1.536,2.315
			c0.476,0,0.844-0.196,1.104-0.589s0.39-0.952,0.39-1.677v-8.035H216.826z"/>
		<path fill="#161616" d="M219.75,510.753v-12.136h2.125v12.136H219.75z"/>
		<path fill="#161616" d="M232.36,510.753h-2.258v-5.321h-2.98v5.321h-2.258v-12.136h2.258v4.822h2.98v-4.822h2.258V510.753z"/>
		<path fill="#161616" d="M242.489,510.753h-2.407l-1.992-5.188l-0.905,0.905v4.283h-2.258v-12.136h2.258v6.018l0.789-1.817
			l2.067-4.2h2.416l-2.806,5.254L242.489,510.753z"/>
		<path fill="#161616" d="M251.447,498.617v7.853c0,1.444-0.327,2.547-0.979,3.308s-1.597,1.142-2.831,1.142
			c-1.207,0-2.125-0.378-2.756-1.133c-0.631-0.756-0.946-1.872-0.946-3.35v-7.819h2.241v7.985c0,1.544,0.512,2.315,1.536,2.315
			c0.476,0,0.844-0.196,1.104-0.589s0.39-0.952,0.39-1.677v-8.035H251.447z"/>
		<path fill="#161616" d="M257.691,510.753h-2.25v-10.151h-2.324v-1.984h6.898v1.984h-2.324V510.753z"/>
		<path fill="#161616" d="M200.604,526.496c0-1.466,0.214-2.838,0.643-4.117c0.429-1.277,1.047-2.398,1.855-3.361h1.951
			c-0.775,1.068-1.361,2.241-1.76,3.52s-0.598,2.593-0.598,3.943c0,1.366,0.208,2.687,0.623,3.959s0.988,2.407,1.718,3.403h-1.934
			c-0.813-0.94-1.433-2.039-1.859-3.296C200.817,529.291,200.604,527.941,200.604,526.496z"/>
		<path fill="#161616" d="M216.062,531.153v-5.512c0-1.355-0.335-2.034-1.004-2.034c-0.487,0-0.835,0.242-1.046,0.727
			s-0.315,1.261-0.315,2.328v4.491h-2.225v-5.512c0-1.355-0.34-2.034-1.021-2.034c-0.476,0-0.822,0.241-1.038,0.723
			s-0.324,1.275-0.324,2.383v4.44h-2.208v-9.247h1.751l0.266,1.188h0.141c0.221-0.471,0.524-0.815,0.909-1.034
			c0.384-0.219,0.795-0.327,1.232-0.327c1.129,0,1.881,0.533,2.258,1.602h0.083c0.47-1.068,1.226-1.602,2.266-1.602
			c0.819,0,1.44,0.287,1.864,0.863c0.423,0.575,0.635,1.416,0.635,2.523v6.034H216.062z"/>
		<path fill="#161616" d="M220.421,519.49c0-0.365,0.106-0.654,0.32-0.867c0.213-0.213,0.51-0.319,0.892-0.319
			c0.36,0,0.647,0.106,0.863,0.319s0.324,0.502,0.324,0.867c0,0.377-0.111,0.669-0.332,0.876c-0.221,0.208-0.506,0.312-0.855,0.312
			c-0.365,0-0.659-0.104-0.88-0.312C220.532,520.159,220.421,519.867,220.421,519.49z M222.721,531.153h-2.208v-9.247h2.208V531.153
			z"/>
		<path fill="#161616" d="M228.45,531.319c-1.157,0-2.068-0.411-2.735-1.232c-0.667-0.822-1-1.985-1-3.491
			c0-1.527,0.302-2.72,0.905-3.577s1.444-1.286,2.523-1.286c1.007,0,1.801,0.366,2.382,1.1s0.872,1.761,0.872,3.084v1.178h-4.441
			c0.017,0.825,0.186,1.438,0.506,1.839s0.764,0.603,1.328,0.603c0.719,0,1.456-0.225,2.208-0.673v1.817
			C230.29,531.106,229.44,531.319,228.45,531.319z M228.126,523.434c-0.315,0-0.576,0.167-0.78,0.502s-0.324,0.854-0.357,1.557
			h2.241c-0.011-0.675-0.113-1.188-0.307-1.535C228.729,523.607,228.463,523.434,228.126,523.434z"/>
		<path fill="#161616" d="M237.89,531.153v-5.512c0-1.355-0.34-2.034-1.021-2.034c-0.509,0-0.866,0.268-1.071,0.802
			s-0.307,1.302-0.307,2.304v4.44h-2.208v-12.916h2.208v2.872c0,0.371-0.033,1.032-0.1,1.984h0.116
			c0.443-0.908,1.124-1.361,2.042-1.361c0.847,0,1.486,0.286,1.917,0.858c0.432,0.573,0.647,1.415,0.647,2.528v6.034H237.89z"/>
		<path fill="#161616" d="M245.735,531.319c-1.157,0-2.068-0.411-2.735-1.232c-0.667-0.822-1-1.985-1-3.491
			c0-1.527,0.302-2.72,0.905-3.577s1.444-1.286,2.523-1.286c1.007,0,1.801,0.366,2.382,1.1s0.872,1.761,0.872,3.084v1.178h-4.441
			c0.017,0.825,0.186,1.438,0.506,1.839s0.764,0.603,1.328,0.603c0.719,0,1.456-0.225,2.208-0.673v1.817
			C247.575,531.106,246.726,531.319,245.735,531.319z M245.412,523.434c-0.315,0-0.576,0.167-0.78,0.502s-0.324,0.854-0.357,1.557
			h2.241c-0.011-0.675-0.113-1.188-0.307-1.535C246.015,523.607,245.749,523.434,245.412,523.434z"/>
		<path fill="#161616" d="M253.78,529.451c0.31,0,0.645-0.077,1.004-0.232v1.727c-0.36,0.25-0.899,0.374-1.619,0.374
			c-0.802,0-1.397-0.239-1.785-0.718s-0.581-1.197-0.581-2.154v-4.789h-0.896v-0.988l1.154-0.797l0.564-1.959h1.411v1.992h1.677
			v1.752h-1.677v4.863C253.033,529.142,253.282,529.451,253.78,529.451z"/>
		<path fill="#161616" d="M260.481,526.496c0,1.456-0.214,2.812-0.643,4.068c-0.429,1.256-1.047,2.349-1.855,3.278h-1.942
			c0.747-1.019,1.325-2.159,1.735-3.424s0.614-2.577,0.614-3.938c0-1.351-0.199-2.665-0.598-3.943s-0.988-2.451-1.768-3.52h1.959
			c0.813,0.969,1.433,2.093,1.859,3.374S260.481,525.041,260.481,526.496z"/>
	</g>
	<g>
		<path fill="#161616" d="M463.996,507.408c0,1.134-0.286,2.003-0.859,2.605c-0.572,0.604-1.398,0.905-2.478,0.905
			c-1.057,0-1.956-0.208-2.698-0.622v-2.233c0.908,0.592,1.74,0.888,2.499,0.888c0.432,0,0.757-0.118,0.976-0.356
			c0.218-0.238,0.328-0.562,0.328-0.972c0-0.403-0.13-0.772-0.39-1.107s-0.689-0.707-1.287-1.117
			c-0.52-0.359-0.915-0.704-1.183-1.033c-0.268-0.329-0.476-0.698-0.622-1.107c-0.147-0.41-0.22-0.886-0.22-1.428
			c0-1.041,0.289-1.865,0.868-2.475c0.578-0.608,1.354-0.912,2.328-0.912c0.93,0,1.823,0.26,2.681,0.779l-0.747,1.811
			c-0.266-0.155-0.543-0.294-0.834-0.416c-0.29-0.121-0.602-0.182-0.934-0.182c-0.365,0-0.646,0.12-0.843,0.36
			c-0.196,0.241-0.294,0.569-0.294,0.983c0,0.41,0.118,0.767,0.353,1.071c0.235,0.305,0.646,0.65,1.232,1.038
			c0.792,0.531,1.343,1.073,1.656,1.627C463.84,506.068,463.996,506.699,463.996,507.408z"/>
		<path fill="#161616" d="M473.377,498.617v7.853c0,1.444-0.327,2.547-0.979,3.308s-1.597,1.142-2.831,1.142
			c-1.207,0-2.125-0.378-2.756-1.133c-0.631-0.756-0.946-1.872-0.946-3.35v-7.819h2.241v7.985c0,1.544,0.512,2.315,1.536,2.315
			c0.476,0,0.844-0.196,1.104-0.589s0.39-0.952,0.39-1.677v-8.035H473.377z"/>
		<path fill="#161616" d="M476.301,510.753v-12.136h2.125v12.136H476.301z"/>
		<path fill="#161616" d="M488.912,510.753h-2.258v-5.321h-2.98v5.321h-2.258v-12.136h2.258v4.822h2.98v-4.822h2.258V510.753z"/>
		<path fill="#161616" d="M499.041,510.753h-2.407l-1.992-5.188l-0.905,0.905v4.283h-2.258v-12.136h2.258v6.018l0.789-1.817
			l2.067-4.2h2.416l-2.806,5.254L499.041,510.753z"/>
		<path fill="#161616" d="M507.998,498.617v7.853c0,1.444-0.326,2.547-0.979,3.308c-0.653,0.761-1.598,1.142-2.831,1.142
			c-1.206,0-2.125-0.378-2.756-1.133c-0.631-0.756-0.946-1.872-0.946-3.35v-7.819h2.241v7.985c0,1.544,0.512,2.315,1.536,2.315
			c0.476,0,0.844-0.196,1.104-0.589s0.391-0.952,0.391-1.677v-8.035H507.998z"/>
		<path fill="#161616" d="M514.242,510.753h-2.25v-10.151h-2.324v-1.984h6.898v1.984h-2.324V510.753z"/>
		<path fill="#161616" d="M460.513,526.496c0-1.466,0.214-2.838,0.643-4.117c0.429-1.277,1.047-2.398,1.855-3.361h1.951
			c-0.775,1.068-1.361,2.241-1.76,3.52s-0.598,2.593-0.598,3.943c0,1.366,0.208,2.687,0.623,3.959s0.988,2.407,1.718,3.403h-1.934
			c-0.813-0.94-1.433-2.039-1.859-3.296C460.726,529.291,460.513,527.941,460.513,526.496z"/>
		<path fill="#161616" d="M471.397,531.153v-5.512c0-0.67-0.08-1.176-0.241-1.519c-0.161-0.344-0.42-0.516-0.78-0.516
			c-0.476,0-0.825,0.237-1.046,0.71c-0.221,0.474-0.332,1.271-0.332,2.396v4.44h-2.208v-9.247h1.751l0.266,1.188h0.141
			c0.199-0.427,0.484-0.76,0.855-1.001c0.371-0.24,0.805-0.36,1.303-0.36c0.841,0,1.471,0.287,1.889,0.863
			c0.417,0.575,0.626,1.416,0.626,2.523v6.034H471.397z"/>
		<path fill="#161616" d="M480.364,531.153l-0.44-1.262h-0.05c-0.327,0.542-0.664,0.916-1.013,1.12
			c-0.349,0.205-0.789,0.308-1.32,0.308c-0.681,0-1.216-0.255-1.606-0.764c-0.391-0.509-0.585-1.218-0.585-2.125
			c0-0.974,0.267-1.697,0.801-2.171c0.534-0.473,1.332-0.734,2.395-0.784l1.229-0.05v-0.664c0-0.863-0.374-1.295-1.121-1.295
			c-0.553,0-1.19,0.216-1.909,0.647l-0.764-1.527c0.918-0.581,1.917-0.872,2.997-0.872c0.979,0,1.725,0.281,2.237,0.843
			c0.512,0.562,0.768,1.357,0.768,2.387v6.209H480.364z M478.446,529.593c0.404,0,0.727-0.182,0.967-0.544
			c0.241-0.362,0.361-0.845,0.361-1.448v-0.78l-0.681,0.033c-0.503,0.027-0.873,0.172-1.108,0.432
			c-0.235,0.26-0.353,0.647-0.353,1.162C477.633,529.211,477.904,529.593,478.446,529.593z"/>
		<path fill="#161616" d="M484.117,519.49c0-0.365,0.106-0.654,0.319-0.867c0.213-0.213,0.511-0.319,0.893-0.319
			c0.36,0,0.647,0.106,0.863,0.319s0.324,0.502,0.324,0.867c0,0.377-0.111,0.669-0.332,0.876c-0.221,0.208-0.506,0.312-0.855,0.312
			c-0.365,0-0.659-0.104-0.88-0.312C484.228,520.159,484.117,519.867,484.117,519.49z M486.417,531.153h-2.208v-9.247h2.208V531.153
			z"/>
		<path fill="#161616" d="M493.698,528.447c0,0.902-0.264,1.606-0.793,2.112c-0.528,0.507-1.307,0.76-2.336,0.76
			c-0.913,0-1.668-0.18-2.266-0.54v-1.917c0.304,0.21,0.66,0.385,1.066,0.522c0.407,0.139,0.765,0.208,1.075,0.208
			c0.343,0,0.604-0.084,0.784-0.253c0.18-0.169,0.27-0.392,0.27-0.668c0-0.283-0.094-0.529-0.282-0.739s-0.534-0.468-1.038-0.772
			c-0.669-0.398-1.149-0.822-1.44-1.273c-0.29-0.451-0.436-0.984-0.436-1.598c0-0.786,0.27-1.409,0.81-1.868
			c0.539-0.459,1.279-0.688,2.22-0.688c0.819,0,1.591,0.215,2.316,0.646l-0.722,1.586c-0.592-0.321-1.112-0.481-1.561-0.481
			c-0.282,0-0.494,0.075-0.635,0.224c-0.141,0.15-0.211,0.332-0.211,0.549c0,0.248,0.087,0.47,0.261,0.664
			c0.175,0.193,0.5,0.434,0.976,0.722c0.576,0.349,0.979,0.645,1.212,0.888c0.232,0.244,0.412,0.521,0.54,0.83
			C493.635,527.67,493.698,528.032,493.698,528.447z"/>
		<path fill="#161616" d="M498.929,531.319c-1.157,0-2.068-0.411-2.735-1.232c-0.667-0.822-1-1.985-1-3.491
			c0-1.527,0.302-2.72,0.905-3.577s1.444-1.286,2.523-1.286c1.007,0,1.801,0.366,2.382,1.1c0.582,0.733,0.872,1.761,0.872,3.084
			v1.178h-4.441c0.017,0.825,0.186,1.438,0.506,1.839s0.764,0.603,1.328,0.603c0.719,0,1.456-0.225,2.208-0.673v1.817
			C500.769,531.106,499.92,531.319,498.929,531.319z M498.605,523.434c-0.315,0-0.576,0.167-0.78,0.502s-0.324,0.854-0.357,1.557
			h2.241c-0.011-0.675-0.113-1.188-0.307-1.535C499.208,523.607,498.943,523.434,498.605,523.434z"/>
		<path fill="#161616" d="M506.975,529.451c0.31,0,0.645-0.077,1.004-0.232v1.727c-0.359,0.25-0.899,0.374-1.619,0.374
			c-0.802,0-1.396-0.239-1.784-0.718s-0.581-1.197-0.581-2.154v-4.789h-0.896v-0.988l1.154-0.797l0.564-1.959h1.41v1.992h1.678
			v1.752h-1.678v4.863C506.227,529.142,506.477,529.451,506.975,529.451z"/>
		<path fill="#161616" d="M513.675,526.496c0,1.456-0.214,2.812-0.644,4.068c-0.429,1.256-1.047,2.349-1.855,3.278h-1.941
			c0.746-1.019,1.324-2.159,1.734-3.424s0.614-2.577,0.614-3.938c0-1.351-0.199-2.665-0.598-3.943s-0.987-2.451-1.769-3.52h1.959
			c0.814,0.969,1.434,2.093,1.859,3.374C513.462,523.673,513.675,525.041,513.675,526.496z"/>
	</g>
	<rect x="327.602" y="692.5" fill="#FFFFFF" width="130.799" height="24"/>
	<g>
		<path d="M339.618,703.52c0,1.289-0.325,2.278-0.975,2.968c-0.65,0.688-1.59,1.033-2.818,1.033h-0.564v4.399h-2.258v-12.136h3.08
			C338.439,699.784,339.618,701.029,339.618,703.52z M335.26,705.562h0.432c0.553,0,0.966-0.152,1.237-0.456
			c0.271-0.305,0.407-0.803,0.407-1.494c0-0.637-0.125-1.108-0.374-1.416c-0.249-0.307-0.634-0.461-1.154-0.461h-0.548V705.562z"/>
		<path d="M346.99,711.92l-0.697-3.063h-3.163l-0.697,3.063h-2.258l3.005-12.186h3.063l3.013,12.186H346.99z M341.968,697.469
			c0-0.338,0.097-0.601,0.291-0.789s0.462-0.282,0.805-0.282s0.613,0.099,0.809,0.295c0.197,0.196,0.295,0.455,0.295,0.776
			c0,0.314-0.098,0.569-0.295,0.764c-0.196,0.193-0.466,0.29-0.809,0.29s-0.611-0.093-0.805-0.278S341.968,697.801,341.968,697.469z
			 M345.87,706.856l-0.647-2.822c-0.039-0.172-0.126-0.602-0.261-1.291c-0.136-0.688-0.217-1.149-0.245-1.382
			c-0.072,0.476-0.163,1-0.274,1.573c-0.111,0.572-0.398,1.88-0.863,3.922H345.87z M345.272,697.469
			c0-0.332,0.097-0.594,0.291-0.785c0.194-0.19,0.465-0.286,0.813-0.286c0.337,0,0.606,0.094,0.805,0.282s0.299,0.451,0.299,0.789
			c0,0.326-0.098,0.583-0.294,0.771c-0.197,0.188-0.466,0.282-0.81,0.282s-0.613-0.096-0.81-0.286
			C345.37,698.045,345.272,697.789,345.272,697.469z"/>
		<path d="M356.497,711.92l-0.697-3.063h-3.163l-0.697,3.063h-2.258l3.005-12.186h3.063l3.013,12.186H356.497z M351.475,697.469
			c0-0.338,0.097-0.601,0.291-0.789s0.462-0.282,0.805-0.282s0.613,0.099,0.81,0.295c0.196,0.196,0.294,0.455,0.294,0.776
			c0,0.314-0.098,0.569-0.294,0.764c-0.197,0.193-0.466,0.29-0.81,0.29s-0.611-0.093-0.805-0.278S351.475,697.801,351.475,697.469z
			 M355.376,706.856l-0.647-2.822c-0.039-0.172-0.126-0.602-0.262-1.291c-0.135-0.688-0.217-1.149-0.245-1.382
			c-0.072,0.476-0.163,1-0.274,1.573c-0.111,0.572-0.398,1.88-0.863,3.922H355.376z M354.778,697.469
			c0-0.332,0.097-0.594,0.291-0.785c0.194-0.19,0.465-0.286,0.813-0.286c0.337,0,0.606,0.094,0.805,0.282s0.299,0.451,0.299,0.789
			c0,0.326-0.098,0.583-0.295,0.771c-0.196,0.188-0.466,0.282-0.809,0.282s-0.613-0.096-0.809-0.286
			C354.876,698.045,354.778,697.789,354.778,697.469z"/>
		<path d="M365.787,708.574c0,1.135-0.287,2.004-0.859,2.607c-0.573,0.603-1.399,0.904-2.478,0.904
			c-1.057,0-1.956-0.207-2.698-0.623v-2.232c0.908,0.592,1.74,0.889,2.499,0.889c0.432,0,0.757-0.119,0.975-0.357
			c0.219-0.238,0.328-0.562,0.328-0.971c0-0.404-0.13-0.773-0.39-1.108s-0.689-0.707-1.287-1.116
			c-0.52-0.36-0.915-0.705-1.183-1.034c-0.269-0.329-0.476-0.698-0.623-1.108c-0.146-0.409-0.22-0.885-0.22-1.428
			c0-1.04,0.289-1.864,0.867-2.473c0.579-0.609,1.354-0.914,2.329-0.914c0.93,0,1.823,0.261,2.681,0.781l-0.747,1.809
			c-0.266-0.154-0.544-0.293-0.834-0.414c-0.291-0.122-0.602-0.184-0.934-0.184c-0.365,0-0.646,0.121-0.842,0.361
			c-0.197,0.241-0.295,0.568-0.295,0.984c0,0.409,0.118,0.766,0.353,1.07c0.235,0.305,0.646,0.65,1.233,1.037
			c0.792,0.531,1.343,1.074,1.656,1.627C365.63,707.235,365.787,707.866,365.787,708.574z"/>
		<path d="M368.113,711.92v-12.136h2.125v12.136H368.113z"/>
		<path d="M378.756,708.574c0,1.135-0.286,2.004-0.859,2.607c-0.572,0.603-1.398,0.904-2.478,0.904
			c-1.057,0-1.956-0.207-2.698-0.623v-2.232c0.908,0.592,1.74,0.889,2.499,0.889c0.432,0,0.757-0.119,0.976-0.357
			c0.218-0.238,0.328-0.562,0.328-0.971c0-0.404-0.13-0.773-0.39-1.108s-0.689-0.707-1.287-1.116
			c-0.52-0.36-0.915-0.705-1.183-1.034c-0.268-0.329-0.476-0.698-0.622-1.108c-0.147-0.409-0.22-0.885-0.22-1.428
			c0-1.04,0.289-1.864,0.868-2.473c0.578-0.609,1.354-0.914,2.328-0.914c0.93,0,1.823,0.261,2.681,0.781l-0.747,1.809
			c-0.266-0.154-0.543-0.293-0.834-0.414c-0.29-0.122-0.602-0.184-0.934-0.184c-0.365,0-0.646,0.121-0.843,0.361
			c-0.196,0.241-0.294,0.568-0.294,0.984c0,0.409,0.118,0.766,0.353,1.07c0.235,0.305,0.646,0.65,1.232,1.037
			c0.792,0.531,1.343,1.074,1.656,1.627C378.6,707.235,378.756,707.866,378.756,708.574z"/>
		<path d="M386.419,711.92l-0.697-3.063h-3.163l-0.697,3.063h-2.258l3.005-12.186h3.063l3.013,12.186H386.419z M381.397,697.469
			c0-0.338,0.097-0.601,0.291-0.789s0.462-0.282,0.805-0.282s0.613,0.099,0.809,0.295c0.197,0.196,0.295,0.455,0.295,0.776
			c0,0.314-0.098,0.569-0.295,0.764c-0.196,0.193-0.466,0.29-0.809,0.29s-0.611-0.093-0.805-0.278S381.397,697.801,381.397,697.469z
			 M385.298,706.856l-0.647-2.822c-0.039-0.172-0.126-0.602-0.261-1.291c-0.136-0.688-0.217-1.149-0.245-1.382
			c-0.072,0.476-0.163,1-0.274,1.573c-0.111,0.572-0.398,1.88-0.863,3.922H385.298z M384.701,697.469
			c0-0.332,0.097-0.594,0.291-0.785c0.194-0.19,0.465-0.286,0.813-0.286c0.337,0,0.606,0.094,0.805,0.282s0.299,0.451,0.299,0.789
			c0,0.326-0.098,0.583-0.294,0.771c-0.197,0.188-0.466,0.282-0.81,0.282s-0.613-0.096-0.81-0.286
			C384.799,698.045,384.701,697.789,384.701,697.469z"/>
		<path d="M395.925,711.92l-0.697-3.063h-3.163l-0.697,3.063h-2.258l3.005-12.186h3.063l3.013,12.186H395.925z M390.903,697.469
			c0-0.338,0.097-0.601,0.291-0.789s0.462-0.282,0.805-0.282s0.613,0.099,0.81,0.295c0.196,0.196,0.294,0.455,0.294,0.776
			c0,0.314-0.098,0.569-0.294,0.764c-0.197,0.193-0.466,0.29-0.81,0.29s-0.611-0.093-0.805-0.278S390.903,697.801,390.903,697.469z
			 M394.805,706.856l-0.647-2.822c-0.039-0.172-0.126-0.602-0.262-1.291c-0.135-0.688-0.217-1.149-0.245-1.382
			c-0.072,0.476-0.163,1-0.274,1.573c-0.111,0.572-0.398,1.88-0.863,3.922H394.805z M394.207,697.469
			c0-0.332,0.097-0.594,0.291-0.785c0.194-0.19,0.465-0.286,0.813-0.286c0.337,0,0.606,0.094,0.805,0.282s0.299,0.451,0.299,0.789
			c0,0.326-0.098,0.583-0.295,0.771c-0.196,0.188-0.466,0.282-0.809,0.282s-0.613-0.096-0.809-0.286
			C394.305,698.045,394.207,697.789,394.207,697.469z"/>
		<path d="M408.187,711.92h-2.756l-3.752-8.791h-0.108c0.138,0.67,0.208,1.39,0.208,2.158v6.633h-2.092v-12.136h2.772l3.719,8.699
			h0.091c-0.105-0.581-0.158-1.272-0.158-2.075v-6.624h2.075V711.92z"/>
		<path d="M418.316,711.92h-2.407l-1.992-5.188l-0.905,0.904v4.283h-2.258v-12.136h2.258v6.019l0.789-1.818l2.067-4.2h2.416
			l-2.806,5.255L418.316,711.92z"/>
		<path d="M425.556,711.92l-0.697-3.063h-3.163l-0.697,3.063h-2.258l3.005-12.186h3.063l3.013,12.186H425.556z M420.534,697.469
			c0-0.338,0.097-0.601,0.291-0.789s0.462-0.282,0.805-0.282s0.613,0.099,0.809,0.295c0.197,0.196,0.295,0.455,0.295,0.776
			c0,0.314-0.098,0.569-0.295,0.764c-0.196,0.193-0.466,0.29-0.809,0.29s-0.611-0.093-0.805-0.278S420.534,697.801,420.534,697.469z
			 M424.435,706.856l-0.647-2.822c-0.039-0.172-0.126-0.602-0.261-1.291c-0.136-0.688-0.217-1.149-0.245-1.382
			c-0.072,0.476-0.163,1-0.274,1.573c-0.111,0.572-0.398,1.88-0.863,3.922H424.435z M423.837,697.469
			c0-0.332,0.097-0.594,0.291-0.785c0.194-0.19,0.465-0.286,0.813-0.286c0.337,0,0.606,0.094,0.805,0.282s0.299,0.451,0.299,0.789
			c0,0.326-0.098,0.583-0.294,0.771c-0.197,0.188-0.466,0.282-0.81,0.282s-0.613-0.096-0.81-0.286
			C423.936,698.045,423.837,697.789,423.837,697.469z"/>
		<path d="M431.559,704.574l1.619-4.79h2.366l-2.88,7.271v4.864h-2.225v-4.773l-2.872-7.362h2.382L431.559,704.574z"/>
		<path d="M445.539,711.92h-2.756l-3.752-8.791h-0.108c0.138,0.67,0.208,1.39,0.208,2.158v6.633h-2.092v-12.136h2.772l3.719,8.699
			h0.091c-0.105-0.581-0.158-1.272-0.158-2.075v-6.624h2.075V711.92z"/>
		<path d="M451.833,711.92h-2.25v-10.152h-2.324v-1.983h6.898v1.983h-2.324V711.92z"/>
		<path d="M456.284,711.92v-12.136h2.125v12.136H456.284z"/>
	</g>
	<rect x="425.333" y="606.25" fill="#E7EEC3" width="75.167" height="50.125"/>
	<g>
		<path fill="#161616" d="M415.544,639.42v-12.136h2.258v10.16h3.129v1.976H415.544z"/>
		<path fill="#161616" d="M423.208,639.42v-12.136h2.125v12.136H423.208z"/>
		<path fill="#161616" d="M434.938,631.02c0,1.289-0.325,2.278-0.976,2.968c-0.65,0.688-1.589,1.033-2.818,1.033h-0.564v4.399
			h-2.258v-12.136h3.08C433.76,627.284,434.938,628.529,434.938,631.02z M430.581,633.062h0.432c0.553,0,0.966-0.152,1.237-0.457
			c0.271-0.304,0.407-0.802,0.407-1.494c0-0.636-0.125-1.107-0.374-1.415c-0.249-0.307-0.634-0.46-1.154-0.46h-0.548V633.062z"/>
		<path fill="#161616" d="M444.353,627.284v7.853c0,1.444-0.327,2.547-0.979,3.308s-1.597,1.142-2.831,1.142
			c-1.207,0-2.125-0.378-2.756-1.133c-0.631-0.756-0.946-1.872-0.946-3.35v-7.819h2.241v7.985c0,1.544,0.512,2.315,1.536,2.315
			c0.476,0,0.844-0.196,1.104-0.589s0.39-0.952,0.39-1.677v-8.035H444.353z"/>
		<path fill="#161616" d="M455.37,639.42h-2.756l-3.752-8.79h-0.108c0.138,0.669,0.208,1.389,0.208,2.158v6.632h-2.092v-12.136
			h2.772l3.719,8.699h0.091c-0.105-0.581-0.158-1.272-0.158-2.075v-6.624h2.075V639.42z"/>
		<path fill="#161616" d="M462.27,639.42l-2.308-10.335h-0.091c0.105,0.797,0.158,1.527,0.158,2.191v8.144h-2.092v-12.136h3.47
			l2.075,9.537h0.066l2.059-9.537h3.52v12.136h-2.142v-8.226c0-0.682,0.039-1.379,0.116-2.092h-0.066l-2.299,10.317H462.27z"/>
		<path fill="#161616" d="M474.614,632.073l1.619-4.789h2.366l-2.88,7.271v4.864h-2.225v-4.772l-2.872-7.363h2.382L474.614,632.073z
			"/>
		<path fill="#161616" d="M483.017,632.073l1.619-4.789h2.366l-2.88,7.271v4.864h-2.225v-4.772l-2.872-7.363h2.382L483.017,632.073z
			"/>
		<path fill="#161616" d="M496.997,639.42h-2.756l-3.752-8.79h-0.108c0.138,0.669,0.208,1.389,0.208,2.158v6.632h-2.092v-12.136
			h2.772l3.719,8.699h0.091c-0.105-0.581-0.158-1.272-0.158-2.075v-6.624h2.075V639.42z"/>
		<path fill="#161616" d="M503.291,639.42h-2.25v-10.151h-2.324v-1.984h6.898v1.984h-2.324V639.42z"/>
		<path fill="#161616" d="M507.741,639.42v-12.136h2.125v12.136H507.741z"/>
	</g>
</g>
<g id="Layer_2">
</g>
</svg>
